<?xml version="1.0" encoding="UTF-8" standalone="no"?>
<!DOCTYPE svg PUBLIC "-//W3C//DTD SVG 1.1//EN" "http://www.w3.org/Graphics/SVG/1.1/DTD/svg11.dtd">
<svg width="100%" height="100%" viewBox="0 0 1024 1024" version="1.1" xmlns="http://www.w3.org/2000/svg" xmlns:xlink="http://www.w3.org/1999/xlink" xml:space="preserve" xmlns:serif="http://www.serif.com/" style="fill-rule:evenodd;clip-rule:evenodd;stroke-linejoin:round;stroke-miterlimit:2;">
    <g transform="matrix(0.418775,0,0,0.429861,324.872,-33.7231)">
        <path d="M882.371,219.884C907.082,220.407 927.125,240.878 927.125,265.595C927.125,290.312 907.082,310.783 882.371,311.306C857.659,310.783 837.617,290.312 837.617,265.595C837.617,240.878 857.659,220.407 882.371,219.884ZM150.958,219.884C126.247,220.407 106.204,240.878 106.204,265.595C106.204,290.312 126.247,310.783 150.958,311.306C175.669,310.783 195.712,290.312 195.712,265.595C195.712,240.878 175.669,220.407 150.958,219.884ZM653.804,357.018C654.327,381.729 674.798,401.772 699.515,401.772C724.232,401.772 744.703,381.729 745.226,357.018C745.226,331.786 724.746,311.306 699.515,311.306C674.284,311.306 653.804,331.786 653.804,357.018ZM920.463,341.811C915.962,368.113 907.197,393.505 894.515,416.983C893.798,396.892 892.406,392.94 890.296,359.578C890.296,359.578 897.618,350.147 897.618,341.78L867.144,341.78C867.144,350.147 874.465,359.578 874.465,359.578C872.387,393.032 870.984,396.902 870.246,417.137C861.286,400.466 849.766,374.426 844.329,341.811C824.719,341.903 775.731,343.839 775.731,395.141L775.731,407.644C829.778,422.195 836.68,465.736 836.68,486.574L836.68,587.674C836.68,620.114 825.549,641.178 811.264,654.305L811.264,702.403C811.264,702.406 811.264,702.409 811.264,702.413C811.264,721.917 827.313,737.966 846.817,737.966L846.869,737.966C866.356,737.966 882.391,721.931 882.391,702.444C882.391,702.43 882.391,702.416 882.391,702.403C882.391,702.416 882.391,702.43 882.391,702.444C882.391,721.931 898.426,737.966 917.914,737.966L917.965,737.966C937.469,737.966 953.518,721.917 953.518,702.413C953.518,702.409 953.518,702.406 953.518,702.403L953.518,549.571C953.518,549.571 989.051,549.571 989.051,496.241L989.051,395.141C989.03,343.869 940.104,341.903 920.463,341.811ZM196.669,587.674L196.669,486.574C196.669,465.746 203.571,422.205 257.618,407.644L257.618,395.141C257.618,343.828 208.63,341.893 189.02,341.811C184.527,368.16 175.773,393.601 163.103,417.137C162.355,396.902 160.963,393.032 158.884,359.578C158.884,359.578 166.205,350.147 166.205,341.78L135.731,341.78C135.731,350.147 143.053,359.578 143.053,359.578C140.943,392.94 139.54,396.902 138.834,416.983C126.146,393.507 117.381,368.115 112.886,341.811C93.245,341.903 44.319,343.869 44.319,395.141L44.319,496.241C44.319,549.571 79.852,549.571 79.852,549.571L79.852,702.392C79.852,702.396 79.852,702.399 79.852,702.403C79.852,721.907 95.901,737.956 115.405,737.956L115.456,737.956C134.943,737.956 150.979,721.92 150.979,702.433C150.979,702.42 150.979,702.406 150.979,702.392C150.979,702.406 150.979,702.42 150.979,702.433C150.979,721.92 167.014,737.956 186.501,737.956L186.552,737.956C206.056,737.956 222.106,721.907 222.106,702.403C222.106,702.399 222.106,702.396 222.106,702.392L222.106,654.295C207.8,641.178 196.669,620.104 196.669,587.674ZM333.814,311.306C309.102,311.829 289.06,332.301 289.06,357.018C289.06,381.734 309.102,402.206 333.814,402.729C358.525,402.206 378.568,381.734 378.568,357.018C378.568,332.301 358.525,311.829 333.814,311.306ZM737.608,433.234C733.106,459.536 724.342,484.928 711.66,508.406C710.943,488.315 709.55,484.362 707.441,451C707.441,451 714.762,441.569 714.762,433.203L684.288,433.203C684.288,441.569 691.61,451 691.61,451C689.531,484.454 688.128,488.325 687.391,508.559C678.431,491.889 666.911,465.848 661.473,433.234C641.864,433.326 592.876,435.261 592.876,486.564L592.876,499.067C646.922,513.618 653.824,557.158 653.824,577.997L653.824,679.096C653.824,711.537 642.693,732.6 628.408,745.728L628.408,793.825C628.408,793.829 628.408,793.832 628.408,793.836C628.408,813.339 644.458,829.389 663.962,829.389L664.013,829.389C683.5,829.389 699.535,813.353 699.535,793.866C699.535,793.853 699.535,793.839 699.535,793.825C699.535,793.839 699.535,793.853 699.535,793.866C699.535,813.353 715.571,829.389 735.058,829.389L735.109,829.389C754.613,829.389 770.662,813.339 770.662,793.836C770.662,793.832 770.662,793.829 770.662,793.825L770.662,641.004C770.662,641.004 806.195,641.004 806.195,587.674L806.195,486.574C806.185,435.292 757.248,433.326 737.608,433.234ZM379.525,679.096L379.525,577.997C379.525,557.169 386.427,513.628 440.474,499.067L440.474,486.564C440.474,435.251 391.485,433.316 371.876,433.234C367.382,459.582 358.628,485.024 345.958,508.559C345.211,488.325 343.818,484.454 341.74,451C341.74,451 349.061,441.569 349.061,433.203L318.587,433.203C318.587,441.569 325.908,451 325.908,451C323.799,484.362 322.396,488.325 321.69,508.406C309.002,484.93 300.237,459.537 295.741,433.234C276.101,433.326 227.174,435.292 227.174,486.564L227.174,587.663C227.174,640.993 262.707,640.993 262.707,640.993L262.707,793.815C262.707,793.818 262.707,793.822 262.707,793.825C262.707,813.329 278.757,829.379 298.26,829.379L298.312,829.379C317.799,829.379 333.834,813.343 333.834,793.856C333.834,793.842 333.834,793.829 333.834,793.815C333.834,793.829 333.834,793.842 333.834,793.856C333.834,813.343 349.87,829.379 369.357,829.379L369.408,829.379C388.912,829.379 404.961,813.329 404.961,793.825C404.961,793.822 404.961,793.818 404.961,793.815L404.961,745.718C390.656,732.6 379.525,711.537 379.525,679.096ZM470.948,448.44C471.471,473.152 491.942,493.194 516.659,493.194C541.376,493.194 561.847,473.152 562.371,448.44C561.847,423.729 541.376,403.686 516.659,403.686C491.942,403.686 471.471,423.729 470.948,448.44ZM516.659,250.358C541.371,250.881 561.413,271.352 561.413,296.069C561.413,320.786 541.371,341.257 516.659,341.78C491.948,341.257 471.905,320.786 471.905,296.069C471.905,271.352 491.948,250.881 516.659,250.358ZM333.814,158.925C358.525,159.448 378.568,179.919 378.568,204.636C378.568,229.353 358.525,249.824 333.814,250.348C309.102,249.824 289.06,229.353 289.06,204.636C289.06,179.919 309.102,159.448 333.814,158.925ZM699.515,158.925C724.226,159.448 744.269,179.919 744.269,204.636C744.269,229.353 724.226,249.824 699.515,250.348C674.804,249.824 654.761,229.353 654.761,204.636C654.761,179.919 674.804,159.448 699.515,158.925ZM516.659,97.976C541.371,98.499 561.413,118.971 561.413,143.688C561.413,168.405 541.371,188.876 516.659,189.399C491.948,188.876 471.905,168.405 471.905,143.688C471.905,118.971 491.948,98.499 516.659,97.976ZM554.762,524.667C550.261,550.969 541.496,576.361 528.814,599.839C528.097,579.748 526.705,575.795 524.595,542.433C524.595,542.433 531.917,533.002 531.917,524.636L501.443,524.636C501.443,533.002 508.764,542.433 508.764,542.433C506.685,575.887 505.283,579.758 504.545,599.992C495.585,583.322 484.065,557.281 478.628,524.667C459.018,524.759 410.03,526.694 410.03,577.997L410.03,679.096C410.03,732.426 445.563,732.426 445.563,732.426L445.563,885.248C445.563,885.251 445.563,885.255 445.563,885.258C445.563,904.762 461.612,920.812 481.116,920.812L481.167,920.812C500.654,920.812 516.69,904.776 516.69,885.289C516.69,885.275 516.69,885.262 516.69,885.248C516.69,885.262 516.69,885.275 516.69,885.289C516.69,904.776 532.725,920.812 552.212,920.812L552.264,920.812C571.768,920.812 587.817,904.762 587.817,885.258C587.817,885.255 587.817,885.251 587.817,885.248L587.817,732.426C587.817,732.426 623.35,732.426 623.35,679.096L623.35,577.997C623.329,526.715 574.403,524.749 554.762,524.667Z" style="fill:rgb(46,52,64);fill-rule:nonzero;"/>
    </g>
    <g transform="matrix(0.311854,0,0,0.324418,-13.821,558.666)">
        <path d="M882.371,219.884C907.082,220.407 927.125,240.878 927.125,265.595C927.125,290.312 907.082,310.783 882.371,311.306C857.659,310.783 837.617,290.312 837.617,265.595C837.617,240.878 857.659,220.407 882.371,219.884ZM150.958,219.884C126.247,220.407 106.204,240.878 106.204,265.595C106.204,290.312 126.247,310.783 150.958,311.306C175.669,310.783 195.712,290.312 195.712,265.595C195.712,240.878 175.669,220.407 150.958,219.884ZM653.804,357.018C654.327,381.729 674.798,401.772 699.515,401.772C724.232,401.772 744.703,381.729 745.226,357.018C745.226,331.786 724.746,311.306 699.515,311.306C674.284,311.306 653.804,331.786 653.804,357.018ZM920.463,341.811C915.962,368.113 907.197,393.505 894.515,416.983C893.798,396.892 892.406,392.94 890.296,359.578C890.296,359.578 897.618,350.147 897.618,341.78L867.144,341.78C867.144,350.147 874.465,359.578 874.465,359.578C872.387,393.032 870.984,396.902 870.246,417.137C861.286,400.466 849.766,374.426 844.329,341.811C824.719,341.903 775.731,343.839 775.731,395.141L775.731,407.644C829.778,422.195 836.68,465.736 836.68,486.574L836.68,587.674C836.68,620.114 825.549,641.178 811.264,654.305L811.264,702.403C811.264,702.406 811.264,702.409 811.264,702.413C811.264,721.917 827.313,737.966 846.817,737.966L846.869,737.966C866.356,737.966 882.391,721.931 882.391,702.444C882.391,702.43 882.391,702.416 882.391,702.403C882.391,702.416 882.391,702.43 882.391,702.444C882.391,721.931 898.426,737.966 917.914,737.966L917.965,737.966C937.469,737.966 953.518,721.917 953.518,702.413C953.518,702.409 953.518,702.406 953.518,702.403L953.518,549.571C953.518,549.571 989.051,549.571 989.051,496.241L989.051,395.141C989.03,343.869 940.104,341.903 920.463,341.811ZM196.669,587.674L196.669,486.574C196.669,465.746 203.571,422.205 257.618,407.644L257.618,395.141C257.618,343.828 208.63,341.893 189.02,341.811C184.527,368.16 175.773,393.601 163.103,417.137C162.355,396.902 160.963,393.032 158.884,359.578C158.884,359.578 166.205,350.147 166.205,341.78L135.731,341.78C135.731,350.147 143.053,359.578 143.053,359.578C140.943,392.94 139.54,396.902 138.834,416.983C126.146,393.507 117.381,368.115 112.886,341.811C93.245,341.903 44.319,343.869 44.319,395.141L44.319,496.241C44.319,549.571 79.852,549.571 79.852,549.571L79.852,702.392C79.852,702.396 79.852,702.399 79.852,702.403C79.852,721.907 95.901,737.956 115.405,737.956L115.456,737.956C134.943,737.956 150.979,721.92 150.979,702.433C150.979,702.42 150.979,702.406 150.979,702.392C150.979,702.406 150.979,702.42 150.979,702.433C150.979,721.92 167.014,737.956 186.501,737.956L186.552,737.956C206.056,737.956 222.106,721.907 222.106,702.403C222.106,702.399 222.106,702.396 222.106,702.392L222.106,654.295C207.8,641.178 196.669,620.104 196.669,587.674ZM333.814,311.306C309.102,311.829 289.06,332.301 289.06,357.018C289.06,381.734 309.102,402.206 333.814,402.729C358.525,402.206 378.568,381.734 378.568,357.018C378.568,332.301 358.525,311.829 333.814,311.306ZM737.608,433.234C733.106,459.536 724.342,484.928 711.66,508.406C710.943,488.315 709.55,484.362 707.441,451C707.441,451 714.762,441.569 714.762,433.203L684.288,433.203C684.288,441.569 691.61,451 691.61,451C689.531,484.454 688.128,488.325 687.391,508.559C678.431,491.889 666.911,465.848 661.473,433.234C641.864,433.326 592.876,435.261 592.876,486.564L592.876,499.067C646.922,513.618 653.824,557.158 653.824,577.997L653.824,679.096C653.824,711.537 642.693,732.6 628.408,745.728L628.408,793.825C628.408,793.829 628.408,793.832 628.408,793.836C628.408,813.339 644.458,829.389 663.962,829.389L664.013,829.389C683.5,829.389 699.535,813.353 699.535,793.866C699.535,793.853 699.535,793.839 699.535,793.825C699.535,793.839 699.535,793.853 699.535,793.866C699.535,813.353 715.571,829.389 735.058,829.389L735.109,829.389C754.613,829.389 770.662,813.339 770.662,793.836C770.662,793.832 770.662,793.829 770.662,793.825L770.662,641.004C770.662,641.004 806.195,641.004 806.195,587.674L806.195,486.574C806.185,435.292 757.248,433.326 737.608,433.234ZM379.525,679.096L379.525,577.997C379.525,557.169 386.427,513.628 440.474,499.067L440.474,486.564C440.474,435.251 391.485,433.316 371.876,433.234C367.382,459.582 358.628,485.024 345.958,508.559C345.211,488.325 343.818,484.454 341.74,451C341.74,451 349.061,441.569 349.061,433.203L318.587,433.203C318.587,441.569 325.908,451 325.908,451C323.799,484.362 322.396,488.325 321.69,508.406C309.002,484.93 300.237,459.537 295.741,433.234C276.101,433.326 227.174,435.292 227.174,486.564L227.174,587.663C227.174,640.993 262.707,640.993 262.707,640.993L262.707,793.815C262.707,793.818 262.707,793.822 262.707,793.825C262.707,813.329 278.757,829.379 298.26,829.379L298.312,829.379C317.799,829.379 333.834,813.343 333.834,793.856C333.834,793.842 333.834,793.829 333.834,793.815C333.834,793.829 333.834,793.842 333.834,793.856C333.834,813.343 349.87,829.379 369.357,829.379L369.408,829.379C388.912,829.379 404.961,813.329 404.961,793.825C404.961,793.822 404.961,793.818 404.961,793.815L404.961,745.718C390.656,732.6 379.525,711.537 379.525,679.096ZM470.948,448.44C471.471,473.152 491.942,493.194 516.659,493.194C541.376,493.194 561.847,473.152 562.371,448.44C561.847,423.729 541.376,403.686 516.659,403.686C491.942,403.686 471.471,423.729 470.948,448.44ZM554.762,524.667C550.261,550.969 541.496,576.361 528.814,599.839C528.097,579.748 526.705,575.795 524.595,542.433C524.595,542.433 531.917,533.002 531.917,524.636L501.443,524.636C501.443,533.002 508.764,542.433 508.764,542.433C506.685,575.887 505.283,579.758 504.545,599.992C495.585,583.322 484.065,557.281 478.628,524.667C459.018,524.759 410.03,526.694 410.03,577.997L410.03,679.096C410.03,732.426 445.563,732.426 445.563,732.426L445.563,885.248C445.563,885.251 445.563,885.255 445.563,885.258C445.563,904.762 461.612,920.812 481.116,920.812L481.167,920.812C500.654,920.812 516.69,904.776 516.69,885.289C516.69,885.275 516.69,885.262 516.69,885.248C516.69,885.262 516.69,885.275 516.69,885.289C516.69,904.776 532.725,920.812 552.212,920.812L552.264,920.812C571.768,920.812 587.817,904.762 587.817,885.258C587.817,885.255 587.817,885.251 587.817,885.248L587.817,732.426C587.817,732.426 623.35,732.426 623.35,679.096L623.35,577.997C623.329,526.715 574.403,524.749 554.762,524.667Z" style="fill:rgb(46,52,64);fill-rule:nonzero;"/>
    </g>
    <g transform="matrix(0.318726,0,0,0.329566,377.829,550.993)">
        <path d="M882.371,219.884C907.082,220.407 927.125,240.878 927.125,265.595C927.125,290.312 907.082,310.783 882.371,311.306C857.659,310.783 837.617,290.312 837.617,265.595C837.617,240.878 857.659,220.407 882.371,219.884ZM150.958,219.884C126.247,220.407 106.204,240.878 106.204,265.595C106.204,290.312 126.247,310.783 150.958,311.306C175.669,310.783 195.712,290.312 195.712,265.595C195.712,240.878 175.669,220.407 150.958,219.884ZM653.804,357.018C654.327,381.729 674.798,401.772 699.515,401.772C724.232,401.772 744.703,381.729 745.226,357.018C745.226,331.786 724.746,311.306 699.515,311.306C674.284,311.306 653.804,331.786 653.804,357.018ZM920.463,341.811C915.962,368.113 907.197,393.505 894.515,416.983C893.798,396.892 892.406,392.94 890.296,359.578C890.296,359.578 897.618,350.147 897.618,341.78L867.144,341.78C867.144,350.147 874.465,359.578 874.465,359.578C872.387,393.032 870.984,396.902 870.246,417.137C861.286,400.466 849.766,374.426 844.329,341.811C824.719,341.903 775.731,343.839 775.731,395.141L775.731,407.644C829.778,422.195 836.68,465.736 836.68,486.574L836.68,587.674C836.68,620.114 825.549,641.178 811.264,654.305L811.264,702.403C811.264,702.406 811.264,702.409 811.264,702.413C811.264,721.917 827.313,737.966 846.817,737.966L846.869,737.966C866.356,737.966 882.391,721.931 882.391,702.444C882.391,702.43 882.391,702.416 882.391,702.403C882.391,702.416 882.391,702.43 882.391,702.444C882.391,721.931 898.426,737.966 917.914,737.966L917.965,737.966C937.469,737.966 953.518,721.917 953.518,702.413C953.518,702.409 953.518,702.406 953.518,702.403L953.518,549.571C953.518,549.571 989.051,549.571 989.051,496.241L989.051,395.141C989.03,343.869 940.104,341.903 920.463,341.811ZM196.669,587.674L196.669,486.574C196.669,465.746 203.571,422.205 257.618,407.644L257.618,395.141C257.618,343.828 208.63,341.893 189.02,341.811C184.527,368.16 175.773,393.601 163.103,417.137C162.355,396.902 160.963,393.032 158.884,359.578C158.884,359.578 166.205,350.147 166.205,341.78L135.731,341.78C135.731,350.147 143.053,359.578 143.053,359.578C140.943,392.94 139.54,396.902 138.834,416.983C126.146,393.507 117.381,368.115 112.886,341.811C93.245,341.903 44.319,343.869 44.319,395.141L44.319,496.241C44.319,549.571 79.852,549.571 79.852,549.571L79.852,702.392C79.852,702.396 79.852,702.399 79.852,702.403C79.852,721.907 95.901,737.956 115.405,737.956L115.456,737.956C134.943,737.956 150.979,721.92 150.979,702.433C150.979,702.42 150.979,702.406 150.979,702.392C150.979,702.406 150.979,702.42 150.979,702.433C150.979,721.92 167.014,737.956 186.501,737.956L186.552,737.956C206.056,737.956 222.106,721.907 222.106,702.403C222.106,702.399 222.106,702.396 222.106,702.392L222.106,654.295C207.8,641.178 196.669,620.104 196.669,587.674ZM333.814,311.306C309.102,311.829 289.06,332.301 289.06,357.018C289.06,381.734 309.102,402.206 333.814,402.729C358.525,402.206 378.568,381.734 378.568,357.018C378.568,332.301 358.525,311.829 333.814,311.306ZM737.608,433.234C733.106,459.536 724.342,484.928 711.66,508.406C710.943,488.315 709.55,484.362 707.441,451C707.441,451 714.762,441.569 714.762,433.203L684.288,433.203C684.288,441.569 691.61,451 691.61,451C689.531,484.454 688.128,488.325 687.391,508.559C678.431,491.889 666.911,465.848 661.473,433.234C641.864,433.326 592.876,435.261 592.876,486.564L592.876,499.067C646.922,513.618 653.824,557.158 653.824,577.997L653.824,679.096C653.824,711.537 642.693,732.6 628.408,745.728L628.408,793.825C628.408,793.829 628.408,793.832 628.408,793.836C628.408,813.339 644.458,829.389 663.962,829.389L664.013,829.389C683.5,829.389 699.535,813.353 699.535,793.866C699.535,793.853 699.535,793.839 699.535,793.825C699.535,793.839 699.535,793.853 699.535,793.866C699.535,813.353 715.571,829.389 735.058,829.389L735.109,829.389C754.613,829.389 770.662,813.339 770.662,793.836C770.662,793.832 770.662,793.829 770.662,793.825L770.662,641.004C770.662,641.004 806.195,641.004 806.195,587.674L806.195,486.574C806.185,435.292 757.248,433.326 737.608,433.234ZM379.525,679.096L379.525,577.997C379.525,557.169 386.427,513.628 440.474,499.067L440.474,486.564C440.474,435.251 391.485,433.316 371.876,433.234C367.382,459.582 358.628,485.024 345.958,508.559C345.211,488.325 343.818,484.454 341.74,451C341.74,451 349.061,441.569 349.061,433.203L318.587,433.203C318.587,441.569 325.908,451 325.908,451C323.799,484.362 322.396,488.325 321.69,508.406C309.002,484.93 300.237,459.537 295.741,433.234C276.101,433.326 227.174,435.292 227.174,486.564L227.174,587.663C227.174,640.993 262.707,640.993 262.707,640.993L262.707,793.815C262.707,793.818 262.707,793.822 262.707,793.825C262.707,813.329 278.757,829.379 298.26,829.379L298.312,829.379C317.799,829.379 333.834,813.343 333.834,793.856C333.834,793.842 333.834,793.829 333.834,793.815C333.834,793.829 333.834,793.842 333.834,793.856C333.834,813.343 349.87,829.379 369.357,829.379L369.408,829.379C388.912,829.379 404.961,813.329 404.961,793.825C404.961,793.822 404.961,793.818 404.961,793.815L404.961,745.718C390.656,732.6 379.525,711.537 379.525,679.096ZM470.948,448.44C471.471,473.152 491.942,493.194 516.659,493.194C541.376,493.194 561.847,473.152 562.371,448.44C561.847,423.729 541.376,403.686 516.659,403.686C491.942,403.686 471.471,423.729 470.948,448.44ZM554.762,524.667C550.261,550.969 541.496,576.361 528.814,599.839C528.097,579.748 526.705,575.795 524.595,542.433C524.595,542.433 531.917,533.002 531.917,524.636L501.443,524.636C501.443,533.002 508.764,542.433 508.764,542.433C506.685,575.887 505.283,579.758 504.545,599.992C495.585,583.322 484.065,557.281 478.628,524.667C459.018,524.759 410.03,526.694 410.03,577.997L410.03,679.096C410.03,732.426 445.563,732.426 445.563,732.426L445.563,885.248C445.563,885.251 445.563,885.255 445.563,885.258C445.563,904.762 461.612,920.812 481.116,920.812L481.167,920.812C500.654,920.812 516.69,904.776 516.69,885.289C516.69,885.275 516.69,885.262 516.69,885.248C516.69,885.262 516.69,885.275 516.69,885.289C516.69,904.776 532.725,920.812 552.212,920.812L552.264,920.812C571.768,920.812 587.817,904.762 587.817,885.258C587.817,885.255 587.817,885.251 587.817,885.248L587.817,732.426C587.817,732.426 623.35,732.426 623.35,679.096L623.35,577.997C623.329,526.715 574.403,524.749 554.762,524.667Z" style="fill:rgb(46,52,64);fill-rule:nonzero;"/>
    </g>
    <g transform="matrix(0.318726,0,0,0.329566,746.045,520.863)">
        <path d="M653.804,357.018C654.327,381.729 674.798,401.772 699.515,401.772C724.232,401.772 744.703,381.729 745.226,357.018C745.226,331.786 724.746,311.306 699.515,311.306C674.284,311.306 653.804,331.786 653.804,357.018ZM737.608,433.234C733.106,459.536 724.342,484.928 711.66,508.406C710.943,488.315 709.55,484.362 707.441,451C707.441,451 714.762,441.569 714.762,433.203L684.288,433.203C684.288,441.569 691.61,451 691.61,451C689.531,484.454 688.128,488.325 687.391,508.559C678.431,491.889 666.911,465.848 661.473,433.234C641.864,433.326 592.876,435.261 592.876,486.564L592.876,499.067C646.922,513.618 653.824,557.158 653.824,577.997L653.824,679.096C653.824,711.537 642.693,732.6 628.408,745.728L628.408,793.825C628.408,793.829 628.408,793.832 628.408,793.836C628.408,813.339 644.458,829.389 663.962,829.389L664.013,829.389C683.5,829.389 699.535,813.353 699.535,793.866C699.535,793.853 699.535,793.839 699.535,793.825C699.535,793.839 699.535,793.853 699.535,793.866C699.535,813.353 715.571,829.389 735.058,829.389L735.109,829.389C754.613,829.389 770.662,813.339 770.662,793.836C770.662,793.832 770.662,793.829 770.662,793.825L770.662,641.004C770.662,641.004 806.195,641.004 806.195,587.674L806.195,486.574C806.185,435.292 757.248,433.326 737.608,433.234ZM470.948,448.44C471.471,473.152 491.942,493.194 516.659,493.194C541.376,493.194 561.847,473.152 562.371,448.44C561.847,423.729 541.376,403.686 516.659,403.686C491.942,403.686 471.471,423.729 470.948,448.44ZM554.762,524.667C550.261,550.969 541.496,576.361 528.814,599.839C528.097,579.748 526.705,575.795 524.595,542.433C524.595,542.433 531.917,533.002 531.917,524.636L501.443,524.636C501.443,533.002 508.764,542.433 508.764,542.433C506.685,575.887 505.283,579.758 504.545,599.992C495.585,583.322 484.065,557.281 478.628,524.667C459.018,524.759 410.03,526.694 410.03,577.997L410.03,679.096C410.03,732.426 445.563,732.426 445.563,732.426L445.563,885.248C445.563,885.251 445.563,885.255 445.563,885.258C445.563,904.762 461.612,920.812 481.116,920.812L481.167,920.812C500.654,920.812 516.69,904.776 516.69,885.289C516.69,885.275 516.69,885.262 516.69,885.248C516.69,885.262 516.69,885.275 516.69,885.289C516.69,904.776 532.725,920.812 552.212,920.812L552.264,920.812C571.768,920.812 587.817,904.762 587.817,885.258C587.817,885.255 587.817,885.251 587.817,885.248L587.817,732.426C587.817,732.426 623.35,732.426 623.35,679.096L623.35,577.997C623.329,526.715 574.403,524.749 554.762,524.667Z" style="fill:rgb(46,52,64);fill-rule:nonzero;"/>
    </g>
    <g transform="matrix(0.187066,0,0,0.167382,446.732,862.324)">
        <path d="M649.996,721.998L639.996,560L525.996,548L541.372,394.002L24,394.002L24,905.996L793.994,891.996L793.994,736.998L649.996,721.998Z" style="fill:rgb(237,85,100);fill-rule:nonzero;"/>
    </g>
    <g transform="matrix(0.187066,0,0,0.167382,446.732,862.324)">
        <path d="M775.994,189.348L694.684,142.692L574.684,114.692L563.996,180.036L581.34,250.69L607.996,324.034L638.684,348.034L681.34,362.69L721.338,356.034L793.994,326.69L799.994,285.376L799.994,228.034L775.994,189.348Z" style="fill:rgb(230,233,237);fill-rule:nonzero;"/>
    </g>
    <g transform="matrix(0.187066,0,0,0.167382,446.732,862.324)">
        <path d="M874.992,372.502L814.494,426.002L899.492,531C899.492,531 951.992,558 954.492,557.5C956.992,557 980.992,549.5 980.992,549.5L1002.49,501.5L874.992,372.502Z" style="fill:rgb(255,206,84);fill-rule:nonzero;"/>
    </g>
    <g transform="matrix(0.187066,0,0,0.167382,446.732,862.324)">
        <path d="M661.34,540L554.684,540L554.684,369.314L0,369.314L0,923.996L810.682,923.996L810.682,710.686L661.34,710.686L661.34,540ZM618.684,582.688L618.684,710.686L405.34,710.686L405.34,582.688L618.684,582.688ZM149.342,582.688L362.686,582.688L362.686,710.686L149.342,710.686L149.342,582.688ZM298.684,412.002L511.996,412.002L511.996,540L298.684,540L298.684,412.002ZM42.656,412.002L255.998,412.002L255.998,540L42.656,540L42.656,412.002ZM42.656,582.688L106.656,582.688L106.656,710.686L42.656,710.686L42.656,582.688ZM256,881.34L42.656,881.34L42.656,753.342L256,753.342L256,881.34ZM511.998,881.34L298.686,881.34L298.686,753.342L511.998,753.342L511.998,881.34ZM768.026,753.342L768.026,881.34L554.684,881.34L554.684,753.342L768.026,753.342ZM1005.27,473.406L869.492,337.626L839.336,367.814L807.806,336.282C823.118,314.188 830.65,287.376 829.212,258.814C827.462,223.564 812.15,189.784 786.15,163.754C762.338,139.972 722.026,124.692 692.402,116.098C658.246,106.192 620.402,100.004 593.652,100.004C573.184,100.004 560.558,103.504 552.714,111.38C544.09,120.004 540.62,134.756 541.496,159.192C542.12,177.036 545.12,199.066 549.934,221.316C555.622,247.504 572.372,312.034 605.122,344.816C632.622,372.284 669.684,388.034 706.87,388.034C732.838,388.034 757.308,380.44 777.588,366.44L809.182,398.002L778.994,428.158L914.774,563.938C926.836,576 942.93,582.688 960.024,582.688C977.118,582.688 993.18,576 1005.27,563.938C1030.24,538.968 1030.24,498.376 1005.27,473.406ZM706.87,345.376C680.934,345.376 654.84,334.158 635.31,314.626C619.278,298.626 603.592,263.158 593.342,219.814C584.592,182.878 583.248,154.878 584.404,143.098C586.592,142.88 589.592,142.692 593.654,142.692C638.372,142.692 726.246,164.192 755.996,193.94C774.496,212.44 785.372,236.252 786.62,260.94C787.402,277.064 783.996,292.252 776.838,305.316L763.9,292.378C755.588,284.066 742.056,284.066 733.744,292.378C729.739,296.378 727.486,301.812 727.486,307.472C727.486,313.132 729.739,318.566 733.744,322.566L746.65,335.442C734.838,341.908 721.244,345.376 706.87,345.376ZM975.118,533.75C971.086,537.782 965.712,540 960.024,540C954.336,540 948.962,537.782 944.93,533.75L839.336,428.158L869.492,398.002L975.116,503.562C983.43,511.906 983.43,525.438 975.118,533.75Z" style="fill:rgb(8,8,8);fill-rule:nonzero;"/>
    </g>
    <g transform="matrix(0.278726,0.154969,-0.159455,0.288206,41.9511,428.815)">
        <path d="M653.804,357.018C654.327,381.729 674.798,401.772 699.515,401.772C724.232,401.772 744.703,381.729 745.226,357.018C745.226,331.786 724.746,311.306 699.515,311.306C674.284,311.306 653.804,331.786 653.804,357.018ZM470.948,448.44C471.471,473.152 491.942,493.194 516.659,493.194C541.376,493.194 561.847,473.152 562.371,448.44C561.847,423.729 541.376,403.686 516.659,403.686C491.942,403.686 471.471,423.729 470.948,448.44Z" style="fill:rgb(46,52,64);fill-rule:nonzero;"/>
    </g>
    <g transform="matrix(1.21815,0,0,1.20679,-86.783,-151.785)">
        <rect x="189.475" y="512" width="651.58" height="12.892" style="fill:rgb(46,52,64);"/>
    </g>
    <g transform="matrix(0.00804486,-1.2877,0.633205,0.00397538,-209.664,873.744)">
        <path d="M230.381,566.287L230.381,586.853L214.823,555.213L230.381,523.574L230.381,544.14L318.348,544.14L318.348,523.574L318.348,586.853L318.348,566.287L230.381,566.287Z" style="fill:rgb(46,52,64);"/>
    </g>
    <g transform="matrix(0.00803727,-1.28648,0.633205,0.00397538,188.804,873.358)">
        <path d="M230.396,566.287L230.396,586.853L214.823,555.213L230.396,523.574L230.396,544.14L318.348,544.14L318.348,523.574L318.348,586.853L318.348,566.287L230.396,566.287Z" style="fill:rgb(46,52,64);"/>
    </g>
    <g transform="matrix(0.00803727,-1.28648,0.633205,0.00397538,582.418,873.358)">
        <path d="M230.396,566.287L230.396,586.853L214.823,555.213L230.396,523.574L230.396,544.14L318.348,544.14L318.348,523.574L318.348,586.853L318.348,566.287L230.396,566.287Z" style="fill:rgb(46,52,64);"/>
    </g>
    <g transform="matrix(0.912943,0,0,1.34419,68.7169,-222.132)">
        <rect x="510.79" y="465.354" width="16.368" height="46.588" style="fill:rgb(46,52,64);"/>
    </g>
    <g transform="matrix(0.240972,0,0,0.21895,14.2276,853.666)">
        <path d="M625.02,606.88L456.75,606.88L609.17,503.32L656.54,589.58L625.02,606.88Z" style="fill:rgb(67,74,84);fill-rule:nonzero;"/>
    </g>
    <g transform="matrix(0.240972,0,0,0.21895,14.2276,853.666)">
        <path d="M155.5,652.14C135.64,652.14 119.56,644.11 119.56,634.16L119.56,464.43C119.56,454.5 135.65,446.45 155.5,446.45C175.35,446.45 191.44,454.51 191.44,464.43L191.44,634.16C191.44,644.11 175.35,652.14 155.5,652.14Z" style="fill:rgb(233,87,63);fill-rule:nonzero;"/>
    </g>
    <g transform="matrix(0.240972,0,0,0.21895,-7.59595,858.474)">
        <path d="M606.91,369.14C591.08,333.96 569.36,313.9 568.44,313.08C566.25,311.08 563.62,309.66 560.78,308.92C549.64,306.1 287.02,239.38 190.23,239.38C177.67,239.38 148.26,239.38 140.75,259.84L85.15,411.38C77.14,433.13 100.05,454.33 139.57,481.47C167.93,500.96 208.32,525.18 259.64,553.48C346.56,601.38 436.29,645.22 437.18,645.64C439.66,646.85 442.34,647.46 445.08,647.46L445.71,647.46C446.95,647.41 476.49,646.17 511.33,629.61C543.43,614.31 586.64,582.58 610.28,518.15C633.92,453.74 621.5,401.55 606.91,369.14Z" style="fill:rgb(252,110,81);fill-rule:nonzero;"/>
    </g>
    <g transform="matrix(0.240972,0,0,0.21895,14.2276,853.666)">
        <path d="M568.44,313.08C566.25,311.08 563.62,309.66 560.78,308.92C559.36,308.58 553.8,307.16 545.03,304.97L422.62,638.45C431.7,642.95 436.97,645.53 437.18,645.64C439.66,646.85 442.34,647.46 445.08,647.46L445.71,647.46C446.18,647.43 450.74,647.25 458.11,646.12L577.02,322.12C572.13,316.48 568.78,313.4 568.44,313.08ZM350.61,261.34L246.16,545.98C250.56,548.46 255.06,550.96 259.64,553.48C265.77,556.85 271.88,560.19 278.02,563.51L386.27,268.56C374.46,266.08 362.51,263.66 350.61,261.34Z" style="fill:rgb(233,87,63);fill-rule:nonzero;"/>
    </g>
    <g transform="matrix(0.240972,0,0,0.21895,14.2276,853.666)">
        <path d="M640.77,598.22L137.52,598.22C127.59,598.22 119.56,606.28 119.56,616.2L119.56,688.08C119.56,698.01 127.59,706.06 137.52,706.06L640.77,706.06C650.7,706.06 658.75,698 658.75,688.08L658.75,616.2C658.75,606.27 650.7,598.22 640.77,598.22Z" style="fill:rgb(204,209,217);fill-rule:nonzero;"/>
    </g>
    <g transform="matrix(0.240972,0,0,0.21895,14.2276,853.666)">
        <path d="M640.8,688.08L640.98,364.38L827.37,364.22L894.33,497.69L928.35,565.75L928.03,688.08L640.8,688.08Z" style="fill:rgb(230,233,237);fill-rule:nonzero;"/>
    </g>
    <g transform="matrix(0.240972,0,0,0.21895,14.2276,853.666)">
        <path d="M894.33,497.69L827.37,364.22L640.98,364.38L640.9,497.69L894.33,497.69Z" style="fill:rgb(79,194,233);fill-rule:nonzero;"/>
    </g>
    <g transform="matrix(0.240972,0,0,0.21895,14.2276,853.666)">
        <path d="M910.39,489.63L838.45,346.24L623.02,346.42L622.81,706.07L945.96,706.07L946.33,561.54L910.39,489.63ZM910.13,670.13L658.78,670.13L658.94,382.34L816.29,382.21L878.24,505.72L910.36,569.97L910.13,670.13Z" style="fill:rgb(230,233,237);fill-rule:nonzero;"/>
    </g>
    <g transform="matrix(0.240972,0,0,0.21895,14.2276,853.666)">
        <path d="M658.75,688.08C658.75,737.381 699.319,777.95 748.62,777.95C797.921,777.95 838.49,737.381 838.49,688.08C838.49,638.779 797.921,598.21 748.62,598.21C699.319,598.21 658.75,638.779 658.75,688.08Z" style="fill:rgb(67,74,84);fill-rule:nonzero;"/>
    </g>
    <g transform="matrix(0.240972,0,0,0.21895,14.2276,853.666)">
        <path d="M389.16,598.22C359.75,598.22 333.66,612.33 317.25,634.16C300.87,612.33 274.78,598.22 245.37,598.22C195.74,598.22 155.5,638.45 155.5,688.09C155.5,737.73 195.73,777.96 245.37,777.96C274.78,777.96 300.87,763.85 317.25,742.02C333.65,763.85 359.75,777.96 389.16,777.96C438.79,777.96 479.03,737.73 479.03,688.09C479.03,638.45 438.79,598.22 389.16,598.22Z" style="fill:rgb(67,74,84);fill-rule:nonzero;"/>
    </g>
    <g transform="matrix(0.240972,0,0,0.21895,14.2276,853.666)">
        <path d="M730.63,688.08C730.63,698.01 738.69,706.06 748.61,706.06C758.54,706.06 766.57,698 766.57,688.08C766.57,678.16 758.54,670.12 748.61,670.12C738.69,670.13 730.63,678.15 730.63,688.08ZM227.38,688.08C227.38,698.01 235.44,706.06 245.36,706.06C255.28,706.06 263.34,698 263.34,688.08C263.34,678.16 255.28,670.12 245.36,670.12C235.44,670.13 227.38,678.15 227.38,688.08ZM371.17,688.08C371.17,698.01 379.23,706.06 389.15,706.06C399.07,706.06 407.11,698 407.11,688.08C407.11,678.16 399.08,670.12 389.15,670.12C379.23,670.13 371.17,678.15 371.17,688.08Z" style="fill:rgb(245,247,250);fill-rule:nonzero;"/>
    </g>
    <g transform="matrix(0.240972,0,0,0.21895,14.2276,853.666)">
        <rect x="694.46" y="382.28" width="35.94" height="115.41" style="fill:rgb(59,175,218);fill-rule:nonzero;"/>
    </g>
    <g transform="matrix(0.900832,0,0,1.01977,219.578,45.815)">
        <g transform="matrix(0.210176,0,0,0.176015,693.488,784.334)">
            <path d="M607.1,721.5L373.4,777.1L84,413.6L785.2,417.3L607.1,721.5Z" style="fill:rgb(98,201,204);fill-rule:nonzero;"/>
        </g>
        <g transform="matrix(0.210176,0,0,0.176015,693.488,784.334)">
            <path d="M84,413.6L373.4,777.1L551.1,734.8L165.6,414.2L84,413.6Z" style="fill:rgb(80,169,169);fill-rule:nonzero;"/>
        </g>
        <g transform="matrix(0.210176,0,0,0.176015,693.488,784.334)">
            <path d="M80.4,817.9L80.4,817.9C80.4,887.076 137.324,944 206.5,944C275.676,944 332.6,887.076 332.6,817.9L332.6,817.9C332.6,748.724 275.676,691.8 206.5,691.8C137.324,691.8 80.4,748.724 80.4,817.9Z" style="fill:rgb(247,208,74);fill-rule:nonzero;"/>
        </g>
        <g transform="matrix(0.210176,0,0,0.176015,693.488,784.334)">
            <path d="M258.4,921.8C188.7,921.8 132.3,865.3 132.3,795.7C132.3,753.9 152.7,716.8 184,693.9C125.1,704.5 80.3,756 80.3,818C80.3,887.7 136.8,944.1 206.4,944.1C234.2,944.1 259.9,935.1 280.8,919.8C273.6,921.1 266.1,921.8 258.4,921.8Z" style="fill:rgb(243,180,27);fill-rule:nonzero;"/>
        </g>
        <g transform="matrix(0.210176,0,0,0.176015,691.502,781.905)">
            <path d="M944.7,321.8L833.4,321.8C828.5,321.8 823.9,324.4 821.4,328.7L777.6,403.4L84.1,403.3C72.7,403.3 66,413.2 73.1,422.2L349,768.9L338.5,771.5C319.3,717 267.3,677.9 206.4,677.9C186.3,677.9 166.9,682.1 148.7,690.3C141.7,693.5 138.6,701.7 141.8,708.7C145,715.7 153.2,718.8 160.2,715.6C174.7,709 190.3,705.7 206.4,705.7C254.3,705.7 295.2,735.8 311.3,778.1L269.3,788.3C258.2,764.7 234.1,748.4 206.4,748.4C168,748.4 136.8,779.6 136.8,818C136.8,856.4 168,887.6 206.4,887.6C244.8,887.6 276,856.4 276,818C276,817.1 276,816.3 275.9,815.4L317.9,805.2C318.4,809.4 318.7,813.7 318.7,818C318.7,879.9 268.4,930.2 206.5,930.2C144.6,930.2 94.2,879.8 94.2,817.9C94.2,791.5 103.6,765.8 120.6,745.6C125.6,739.7 124.8,731 118.9,726C113,721 104.2,721.8 99.3,727.7C78,752.9 66.3,784.9 66.3,817.9C66.3,895.1 129.1,957.9 206.3,957.9C283.5,957.9 346.3,895.1 346.3,817.9C346.3,811.3 345.8,804.8 344.9,798.5L474.3,767.3L577.2,936.7C577.3,936.9 577.4,937 577.5,937.2C585.6,949.4 598.3,956.1 611.8,956.1C617.1,956.1 622.5,955.1 627.7,953C646.5,945.5 656.9,927 653.4,907.1L621.5,724.2L719,558C722.9,551.4 720.7,542.8 714,539C707.4,535.1 698.9,537.3 695,544L597.9,709.5L378.6,761.7L110.3,427.8L761.7,427.8L730,484.4C726.4,490.5 728.1,498.6 733.9,502.7C740.5,507.4 749.9,505.4 754,498.4L841.4,349.5L944.7,349.5C952.4,349.5 958.6,343.3 958.6,335.6C958.6,328 952.4,321.8 944.7,321.8Z" style="fill-rule:nonzero;"/>
        </g>
        <g transform="matrix(0.210176,0,0,0.176015,693.488,784.334)">
            <path d="M235.2,825.3C231.9,838.2 220.3,847.7 206.4,847.7C190,847.7 176.7,834.4 176.7,818C176.7,801.6 190,788.3 206.4,788.3C215.2,788.3 223.1,792.2 228.6,798.3L241.3,795.2C233.8,783.8 221,776.3 206.4,776.3C183.4,776.3 164.7,795 164.7,818C164.7,841 183.4,859.7 206.4,859.7C228,859.7 245.8,843.2 247.9,822.2L235.2,825.3Z" style="fill:rgb(235,104,54);fill-rule:nonzero;"/>
        </g>
        <g transform="matrix(0.210176,0,0,0.176015,693.488,784.334)">
            <path d="M206.5,788.3C190.1,788.3 176.8,801.6 176.8,818C176.8,834.4 190.1,847.7 206.5,847.7C220.4,847.7 232,838.2 235.3,825.3L209.8,831.5C202.3,833.3 194.8,828.7 193,821.3C191.2,813.8 195.8,806.3 203.2,804.5L228.7,798.3C223.2,792.1 215.3,788.3 206.5,788.3Z" style="fill:rgb(199,75,56);fill-rule:nonzero;"/>
        </g>
        <g transform="matrix(0.193803,0,0,0.163411,701.724,793.642)">
            <path d="M626.2,911.8C628,922.1 620.1,926.1 617.6,927.1C615.2,928.1 606.8,930.6 601,922.1L503,760.6L596,738.5L626.2,911.8Z" style="fill:white;fill-rule:nonzero;"/>
        </g>
    </g>
</svg>
