<?xml version="1.0" encoding="UTF-8" standalone="no"?>
<!DOCTYPE svg PUBLIC "-//W3C//DTD SVG 1.1//EN" "http://www.w3.org/Graphics/SVG/1.1/DTD/svg11.dtd">
<svg width="100%" height="100%" viewBox="0 0 1024 898" version="1.1" xmlns="http://www.w3.org/2000/svg" xmlns:xlink="http://www.w3.org/1999/xlink" xml:space="preserve" xmlns:serif="http://www.serif.com/" style="fill-rule:evenodd;clip-rule:evenodd;stroke-linejoin:round;stroke-miterlimit:2;">
    <g transform="matrix(1.57678,0,0,1.54767,-161.175,-121.265)">
        <g transform="matrix(1.77631,0.883221,-0.445222,0.89542,-305.419,-229.825)">
            <path d="M302.779,194.941L302.779,216.705L302.779,170.373L302.779,192.137L565.697,192.137L558.103,170.373L569.649,193.539L558.103,216.705L565.697,194.941L302.779,194.941Z" style="fill:rgb(51,51,51);"/>
        </g>
        <g transform="matrix(2.00102,1.06777,-0.60184,0.829764,-317.398,-259.274)">
            <path d="M302.779,194.941L302.779,216.705L302.779,170.373L302.779,192.137L566.136,192.137L559.386,170.373L569.649,193.539L559.386,216.705L566.136,194.941L302.779,194.941Z" style="fill:rgb(51,51,51);"/>
        </g>
        <g transform="matrix(1.75672,0.36781,-0.204929,0.978777,-335.2,-84.3828)">
            <path d="M302.779,194.941L302.779,216.705L302.779,170.373L302.779,192.137L565.306,192.137L556.96,170.373L569.649,193.539L556.96,216.705L565.306,194.941L302.779,194.941Z" style="fill:rgb(51,51,51);"/>
        </g>
        <g transform="matrix(1.77011,0.628849,-0.334763,0.942302,-324.091,-160.794)">
            <path d="M302.779,194.941L302.779,216.705L302.779,170.373L302.779,192.137L565.489,192.137L557.494,170.373L569.649,193.539L557.494,216.705L565.489,194.941L302.779,194.941Z" style="fill:rgb(51,51,51);"/>
        </g>
        <g transform="matrix(2.00148,0.359437,-0.233482,0.956494,-390.502,-70.4234)">
            <path d="M302.779,194.941L302.779,216.705L302.779,170.373L302.779,192.137L565.884,192.137L558.648,170.373L569.649,193.539L558.648,216.705L565.884,194.941L302.779,194.941Z" style="fill:rgb(51,51,51);"/>
        </g>
        <g transform="matrix(2.0238,0.863114,-0.507254,0.875035,-356.572,-212.554)">
            <path d="M302.779,194.941L302.779,216.705L302.779,170.373L302.779,192.137L566.078,192.137L559.215,170.373L569.649,193.539L559.215,216.705L566.078,194.941L302.779,194.941Z" style="fill:rgb(51,51,51);"/>
        </g>
        <g transform="matrix(1.75632,1.09265,-0.528241,0.849094,-271.036,-277.633)">
            <path d="M302.779,194.941L302.779,216.705L302.779,170.373L302.779,192.137L565.848,192.137L558.542,170.373L569.649,193.539L558.542,216.705L565.848,194.941L302.779,194.941Z" style="fill:rgb(51,51,51);"/>
        </g>
        <g transform="matrix(2.01673,0.614533,-0.381405,0.92085,-377.846,-145.095)">
            <path d="M302.779,194.941L302.779,216.705L302.779,170.373L302.779,192.137L565.975,192.137L558.916,170.373L569.649,193.539L558.916,216.705L565.975,194.941L302.779,194.941Z" style="fill:rgb(51,51,51);"/>
        </g>
    </g>
    <g transform="matrix(1.4675,-0.447351,0.499253,1.57784,-244.876,183.619)">
        <g transform="matrix(1.67151,0.716356,-0.385788,0.918117,-280.915,-173.168)">
            <path d="M302.779,194.941L302.779,216.705L302.779,170.373L302.779,192.137L565.118,192.137L556.41,170.373L569.649,193.539L556.41,216.705L565.118,194.941L302.779,194.941Z" style="fill:rgb(51,51,51);"/>
        </g>
        <g transform="matrix(1.85635,0.990571,-0.60184,0.829764,-289.4,-240.38)">
            <path d="M302.779,194.941L302.779,216.705L302.779,170.373L302.779,192.137L565.702,192.137L558.117,170.373L569.649,193.539L558.117,216.705L565.702,194.941L302.779,194.941Z" style="fill:rgb(51,51,51);"/>
        </g>
        <g transform="matrix(1.77865,0.265871,-0.136859,0.988632,-354.801,-52.1286)">
            <path d="M302.779,194.941L302.779,216.705L302.779,170.373L302.779,192.137L564.935,192.137L555.877,170.373L569.649,193.539L555.877,216.705L564.935,194.941L302.779,194.941Z" style="fill:rgb(51,51,51);"/>
        </g>
        <g transform="matrix(1.8155,0.509719,-0.258842,0.962025,-369.958,-123.498)">
            <path d="M302.779,194.941L302.779,216.705L302.779,170.373L302.779,192.137L565.21,192.137L556.68,170.373L569.649,193.539L556.68,216.705L565.21,194.941L302.779,194.941Z" style="fill:rgb(51,51,51);"/>
        </g>
        <g transform="matrix(2.00148,0.359437,-0.233482,0.956494,-390.502,-70.4234)">
            <path d="M302.779,194.941L302.779,216.705L302.779,170.373L302.779,192.137L565.553,192.137L557.682,170.373L569.649,193.539L557.682,216.705L565.553,194.941L302.779,194.941Z" style="fill:rgb(51,51,51);"/>
        </g>
        <g transform="matrix(1.90789,0.813678,-0.507254,0.875035,-321.475,-197.586)">
            <path d="M302.779,194.941L302.779,216.705L302.779,170.373L302.779,192.137L565.643,192.137L557.945,170.373L569.649,193.539L557.945,216.705L565.643,194.941L302.779,194.941Z" style="fill:rgb(51,51,51);"/>
        </g>
        <g transform="matrix(1.53944,0.957722,-0.528241,0.849094,-205.37,-236.78)">
            <path d="M302.779,194.941L302.779,216.705L302.779,170.373L302.779,192.137L565.181,192.137L556.596,170.373L569.649,193.539L556.596,216.705L565.181,194.941L302.779,194.941Z" style="fill:rgb(51,51,51);"/>
        </g>
        <g transform="matrix(1.98915,0.558861,-0.357494,0.928811,-371.615,-125.286)">
            <path d="M302.779,194.941L302.779,216.705L302.779,170.373L302.779,192.137L565.619,192.137L557.876,170.373L569.649,193.539L557.876,216.705L565.619,194.941L302.779,194.941Z" style="fill:rgb(51,51,51);"/>
        </g>
    </g>
    <g transform="matrix(1.57678,0,0,-1.29296,-161.175,1063.47)">
        <g transform="matrix(1.77631,0.883221,-0.445222,0.89542,-305.419,-229.825)">
            <path d="M302.779,194.941L302.779,216.705L302.779,170.373L302.779,192.137L566.144,192.137L559.408,170.373L569.649,193.539L559.408,216.705L566.144,194.941L302.779,194.941Z" style="fill:rgb(51,51,51);"/>
        </g>
        <g transform="matrix(2.00102,1.06777,-0.60184,0.829764,-317.398,-259.274)">
            <path d="M302.779,194.941L302.779,216.705L302.779,170.373L302.779,192.137L566.51,192.137L560.479,170.373L569.649,193.539L560.479,216.705L566.51,194.941L302.779,194.941Z" style="fill:rgb(51,51,51);"/>
        </g>
        <g transform="matrix(1.75672,0.36781,-0.204929,0.978777,-335.2,-84.3828)">
            <path d="M302.779,194.941L302.779,216.705L302.779,170.373L302.779,192.137L565.976,192.137L558.917,170.373L569.649,193.539L558.917,216.705L565.976,194.941L302.779,194.941Z" style="fill:rgb(51,51,51);"/>
        </g>
        <g transform="matrix(1.77011,0.628849,-0.334763,0.942302,-324.091,-160.794)">
            <path d="M302.779,194.941L302.779,216.705L302.779,170.373L302.779,192.137L566.056,192.137L559.151,170.373L569.649,193.539L559.151,216.705L566.056,194.941L302.779,194.941Z" style="fill:rgb(51,51,51);"/>
        </g>
        <g transform="matrix(2.00148,0.359437,-0.233482,0.956494,-390.502,-70.4234)">
            <path d="M302.779,194.941L302.779,216.705L302.779,170.373L302.779,192.137L566.474,192.137L560.374,170.373L569.649,193.539L560.374,216.705L566.474,194.941L302.779,194.941Z" style="fill:rgb(51,51,51);"/>
        </g>
        <g transform="matrix(2.0238,0.863114,-0.507254,0.875035,-356.572,-212.554)">
            <path d="M302.779,194.941L302.779,216.705L302.779,170.373L302.779,192.137L566.525,192.137L560.521,170.373L569.649,193.539L560.521,216.705L566.525,194.941L302.779,194.941Z" style="fill:rgb(51,51,51);"/>
        </g>
        <g transform="matrix(1.75632,1.09265,-0.528241,0.849094,-271.036,-277.633)">
            <path d="M302.779,194.941L302.779,216.705L302.779,170.373L302.779,192.137L566.189,192.137L559.541,170.373L569.649,193.539L559.541,216.705L566.189,194.941L302.779,194.941Z" style="fill:rgb(51,51,51);"/>
        </g>
        <g transform="matrix(2.01673,0.614533,-0.381405,0.92085,-377.846,-145.095)">
            <path d="M302.779,194.941L302.779,216.705L302.779,170.373L302.779,192.137L566.502,192.137L560.454,170.373L569.649,193.539L560.454,216.705L566.502,194.941L302.779,194.941Z" style="fill:rgb(51,51,51);"/>
        </g>
    </g>
    <g transform="matrix(0.723026,0,0,0.740914,496.596,352.063)">
        <path d="M470.948,448.44C471.471,473.152 491.942,493.194 516.659,493.194C541.376,493.194 561.847,473.152 562.371,448.44C561.847,423.729 541.376,403.686 516.659,403.686C491.942,403.686 471.471,423.729 470.948,448.44Z" style="fill:rgb(136,192,208);fill-rule:nonzero;"/>
    </g>
    <g transform="matrix(0.498373,0,0,0.514441,-204.348,-186.725)">
        <path d="M470.948,448.44C471.471,473.152 491.942,493.194 516.659,493.194C541.376,493.194 561.847,473.152 562.371,448.44C561.847,423.729 541.376,403.686 516.659,403.686C491.942,403.686 471.471,423.729 470.948,448.44ZM554.762,524.667C550.261,550.969 541.496,576.361 528.814,599.839C528.097,579.748 526.705,575.795 524.595,542.433C524.595,542.433 531.917,533.002 531.917,524.636L501.443,524.636C501.443,533.002 508.764,542.433 508.764,542.433C506.685,575.887 505.283,579.758 504.545,599.992C495.585,583.322 484.065,557.281 478.628,524.667C459.018,524.759 410.03,526.694 410.03,577.997L410.03,679.096C410.03,732.426 445.563,732.426 445.563,732.426L445.563,885.248C445.563,885.251 445.563,885.255 445.563,885.258C445.563,904.762 461.612,920.812 481.116,920.812L481.167,920.812C500.654,920.812 516.69,904.776 516.69,885.289C516.69,885.275 516.69,885.262 516.69,885.248C516.69,885.262 516.69,885.275 516.69,885.289C516.69,904.776 532.725,920.812 552.212,920.812L552.264,920.812C571.768,920.812 587.817,904.762 587.817,885.258C587.817,885.255 587.817,885.251 587.817,885.248L587.817,732.426C587.817,732.426 623.35,732.426 623.35,679.096L623.35,577.997C623.329,526.715 574.403,524.749 554.762,524.667Z" style="fill-rule:nonzero;"/>
    </g>
    <g transform="matrix(0.498373,0,0,0.514441,-204.348,403.348)">
        <path d="M470.948,448.44C471.471,473.152 491.942,493.194 516.659,493.194C541.376,493.194 561.847,473.152 562.371,448.44C561.847,423.729 541.376,403.686 516.659,403.686C491.942,403.686 471.471,423.729 470.948,448.44ZM554.762,524.667C550.261,550.969 541.496,576.361 528.814,599.839C528.097,579.748 526.705,575.795 524.595,542.433C524.595,542.433 531.917,533.002 531.917,524.636L501.443,524.636C501.443,533.002 508.764,542.433 508.764,542.433C506.685,575.887 505.283,579.758 504.545,599.992C495.585,583.322 484.065,557.281 478.628,524.667C459.018,524.759 410.03,526.694 410.03,577.997L410.03,679.096C410.03,732.426 445.563,732.426 445.563,732.426L445.563,885.248C445.563,885.251 445.563,885.255 445.563,885.258C445.563,904.762 461.612,920.812 481.116,920.812L481.167,920.812C500.654,920.812 516.69,904.776 516.69,885.289C516.69,885.275 516.69,885.262 516.69,885.248C516.69,885.262 516.69,885.275 516.69,885.289C516.69,904.776 532.725,920.812 552.212,920.812L552.264,920.812C571.768,920.812 587.817,904.762 587.817,885.258C587.817,885.255 587.817,885.251 587.817,885.248L587.817,732.426C587.817,732.426 623.35,732.426 623.35,679.096L623.35,577.997C623.329,526.715 574.403,524.749 554.762,524.667Z" style="fill-rule:nonzero;"/>
    </g>
    <g transform="matrix(0.498373,0,0,0.514441,-204.348,103.458)">
        <path d="M470.948,448.44C471.471,473.152 491.942,493.194 516.659,493.194C541.376,493.194 561.847,473.152 562.371,448.44C561.847,423.729 541.376,403.686 516.659,403.686C491.942,403.686 471.471,423.729 470.948,448.44ZM554.762,524.667C550.261,550.969 541.496,576.361 528.814,599.839C528.097,579.748 526.705,575.795 524.595,542.433C524.595,542.433 531.917,533.002 531.917,524.636L501.443,524.636C501.443,533.002 508.764,542.433 508.764,542.433C506.685,575.887 505.283,579.758 504.545,599.992C495.585,583.322 484.065,557.281 478.628,524.667C459.018,524.759 410.03,526.694 410.03,577.997L410.03,679.096C410.03,732.426 445.563,732.426 445.563,732.426L445.563,885.248C445.563,885.251 445.563,885.255 445.563,885.258C445.563,904.762 461.612,920.812 481.116,920.812L481.167,920.812C500.654,920.812 516.69,904.776 516.69,885.289C516.69,885.275 516.69,885.262 516.69,885.248C516.69,885.262 516.69,885.275 516.69,885.289C516.69,904.776 532.725,920.812 552.212,920.812L552.264,920.812C571.768,920.812 587.817,904.762 587.817,885.258C587.817,885.255 587.817,885.251 587.817,885.248L587.817,732.426C587.817,732.426 623.35,732.426 623.35,679.096L623.35,577.997C623.329,526.715 574.403,524.749 554.762,524.667Z" style="fill-rule:nonzero;"/>
    </g>
    <g transform="matrix(0.723026,0,0,0.740914,496.596,26.5672)">
        <path d="M470.948,448.44C471.471,473.152 491.942,493.194 516.659,493.194C541.376,493.194 561.847,473.152 562.371,448.44C561.847,423.729 541.376,403.686 516.659,403.686C491.942,403.686 471.471,423.729 470.948,448.44Z" style="fill:rgb(191,97,106);fill-rule:nonzero;"/>
    </g>
    <g transform="matrix(0.723026,0,0,0.740914,617.392,136.778)">
        <path d="M470.948,448.44C471.471,473.152 491.942,493.194 516.659,493.194C541.376,493.194 561.847,473.152 562.371,448.44C561.847,423.729 541.376,403.686 516.659,403.686C491.942,403.686 471.471,423.729 470.948,448.44Z" style="fill:rgb(235,203,139);fill-rule:nonzero;"/>
    </g>
    <g transform="matrix(0.723026,0,0,0.740914,617.392,353.709)">
        <path d="M470.948,448.44C471.471,473.152 491.942,493.194 516.659,493.194C541.376,493.194 561.847,473.152 562.371,448.44C561.847,423.729 541.376,403.686 516.659,403.686C491.942,403.686 471.471,423.729 470.948,448.44Z" style="fill:rgb(208,135,112);fill-rule:nonzero;"/>
    </g>
    <g transform="matrix(0.723026,0,0,0.740914,617.392,244.905)">
        <path d="M470.948,448.44C471.471,473.152 491.942,493.194 516.659,493.194C541.376,493.194 561.847,473.152 562.371,448.44C561.847,423.729 541.376,403.686 516.659,403.686C491.942,403.686 471.471,423.729 470.948,448.44Z" style="fill:rgb(180,142,173);fill-rule:nonzero;"/>
    </g>
    <g transform="matrix(0.723026,0,0,0.740914,496.596,244.048)">
        <path d="M470.948,448.44C471.471,473.152 491.942,493.194 516.659,493.194C541.376,493.194 561.847,473.152 562.371,448.44C561.847,423.729 541.376,403.686 516.659,403.686C491.942,403.686 471.471,423.729 470.948,448.44Z" style="fill:rgb(94,129,172);fill-rule:nonzero;"/>
    </g>
    <g transform="matrix(0.723026,0,0,0.740914,496.596,135.34)">
        <path d="M470.948,448.44C471.471,473.152 491.942,493.194 516.659,493.194C541.376,493.194 561.847,473.152 562.371,448.44C561.847,423.729 541.376,403.686 516.659,403.686C491.942,403.686 471.471,423.729 470.948,448.44Z" style="fill:rgb(163,190,140);fill-rule:nonzero;"/>
    </g>
    <g transform="matrix(0.723026,0,0,0.740914,617.392,26.5672)">
        <path d="M470.948,448.44C471.471,473.152 491.942,493.194 516.659,493.194C541.376,493.194 561.847,473.152 562.371,448.44C561.847,423.729 541.376,403.686 516.659,403.686C491.942,403.686 471.471,423.729 470.948,448.44Z" style="fill:rgb(67,76,94);fill-rule:nonzero;"/>
    </g>
</svg>
