<?xml version="1.0" encoding="UTF-8" standalone="no"?>
<!DOCTYPE svg PUBLIC "-//W3C//DTD SVG 1.1//EN" "http://www.w3.org/Graphics/SVG/1.1/DTD/svg11.dtd">
<svg width="100%" height="100%" viewBox="0 0 1024 194" version="1.1" xmlns="http://www.w3.org/2000/svg" xmlns:xlink="http://www.w3.org/1999/xlink" xml:space="preserve" xmlns:serif="http://www.serif.com/" style="fill-rule:evenodd;clip-rule:evenodd;stroke-linejoin:round;stroke-miterlimit:2;">
    <g transform="matrix(1,0,0,1,-138.847,-415)">
        <g transform="matrix(0.390293,0,0,0.422204,149.576,447.149)">
            <path d="M256,0L51.2,0C23.04,0 0,23.04 0,51.2L0,256C0,284.16 23.04,307.2 51.2,307.2L256,307.2C284.16,307.2 307.2,284.16 307.2,256L307.2,51.2C307.2,23.04 284.16,0 256,0ZM256,230.4C256,244.544 244.544,256 230.4,256L76.8,256C62.656,256 51.2,244.544 51.2,230.4L51.2,76.8C51.2,62.656 62.656,51.2 76.8,51.2L230.4,51.2C244.544,51.2 256,62.656 256,76.8L256,230.4Z" style="fill:rgb(46,52,64);fill-rule:nonzero;"/>
        </g>
        <g transform="matrix(0.441762,0.167496,-0.167496,0.441762,209.317,302.444)">
            <text x="159.712px" y="432.531px" style="font-family:'ArialRoundedMTBold', 'Arial Rounded MT Bold', sans-serif;font-size:110.576px;fill:rgb(163,190,140);">A</text>
        </g>
        <g transform="matrix(0.354445,-0.0284399,0.0284399,0.354445,69.415,362.576)">
            <text x="270.877px" y="548.571px" style="font-family:'ArialRoundedMTBold', 'Arial Rounded MT Bold', sans-serif;font-size:122.521px;fill:rgb(94,129,172);">B</text>
        </g>
        <g transform="matrix(0.368277,-0.0718074,0.0718074,0.368277,55.7424,280.238)">
            <text x="196.589px" y="682.375px" style="font-family:'ArialRoundedMTBold', 'Arial Rounded MT Bold', sans-serif;font-size:122.521px;fill:rgb(191,97,106);">N</text>
        </g>
    </g>
    <g transform="matrix(1,0,0,1,155.367,-415)">
        <g transform="matrix(0.390293,0,0,0.422204,149.576,447.149)">
            <path d="M256,0L51.2,0C23.04,0 0,23.04 0,51.2L0,256C0,284.16 23.04,307.2 51.2,307.2L256,307.2C284.16,307.2 307.2,284.16 307.2,256L307.2,51.2C307.2,23.04 284.16,0 256,0ZM256,230.4C256,244.544 244.544,256 230.4,256L76.8,256C62.656,256 51.2,244.544 51.2,230.4L51.2,76.8C51.2,62.656 62.656,51.2 76.8,51.2L230.4,51.2C244.544,51.2 256,62.656 256,76.8L256,230.4Z" style="fill:rgb(46,52,64);fill-rule:nonzero;"/>
        </g>
        <g transform="matrix(0.441762,0.167496,-0.167496,0.441762,209.317,302.444)">
            <text x="159.712px" y="432.531px" style="font-family:'ArialRoundedMTBold', 'Arial Rounded MT Bold', sans-serif;font-size:110.576px;fill:rgb(163,190,140);">A</text>
        </g>
        <g transform="matrix(0.354445,-0.0284399,0.0284399,0.354445,69.415,362.576)">
            <text x="270.877px" y="548.571px" style="font-family:'ArialRoundedMTBold', 'Arial Rounded MT Bold', sans-serif;font-size:122.521px;fill:rgb(94,129,172);">B</text>
        </g>
        <g transform="matrix(0.368277,-0.0718074,0.0718074,0.368277,55.7424,280.238)">
            <text x="196.589px" y="682.375px" style="font-family:'ArialRoundedMTBold', 'Arial Rounded MT Bold', sans-serif;font-size:122.521px;fill:rgb(191,97,106);">N</text>
        </g>
    </g>
    <g transform="matrix(1,0,0,1,449.582,-415)">
        <g transform="matrix(0.390293,0,0,0.422204,149.576,447.149)">
            <path d="M256,0L51.2,0C23.04,0 0,23.04 0,51.2L0,256C0,284.16 23.04,307.2 51.2,307.2L256,307.2C284.16,307.2 307.2,284.16 307.2,256L307.2,51.2C307.2,23.04 284.16,0 256,0ZM256,230.4C256,244.544 244.544,256 230.4,256L76.8,256C62.656,256 51.2,244.544 51.2,230.4L51.2,76.8C51.2,62.656 62.656,51.2 76.8,51.2L230.4,51.2C244.544,51.2 256,62.656 256,76.8L256,230.4Z" style="fill:rgb(46,52,64);fill-rule:nonzero;"/>
        </g>
        <g transform="matrix(0.441762,0.167496,-0.167496,0.441762,209.317,302.444)">
            <text x="159.712px" y="432.531px" style="font-family:'ArialRoundedMTBold', 'Arial Rounded MT Bold', sans-serif;font-size:110.576px;fill:rgb(163,190,140);">A</text>
        </g>
        <g transform="matrix(0.354445,-0.0284399,0.0284399,0.354445,69.415,362.576)">
            <text x="270.877px" y="548.571px" style="font-family:'ArialRoundedMTBold', 'Arial Rounded MT Bold', sans-serif;font-size:122.521px;fill:rgb(94,129,172);">B</text>
        </g>
        <g transform="matrix(0.368277,-0.0718074,0.0718074,0.368277,55.7424,280.238)">
            <text x="196.589px" y="682.375px" style="font-family:'ArialRoundedMTBold', 'Arial Rounded MT Bold', sans-serif;font-size:122.521px;fill:rgb(191,97,106);">N</text>
        </g>
    </g>
    <g transform="matrix(1,0,0,1,8.26002,-415)">
        <g transform="matrix(0.390293,0,0,0.422204,149.576,447.149)">
            <path d="M256,0L51.2,0C23.04,0 0,23.04 0,51.2L0,256C0,284.16 23.04,307.2 51.2,307.2L256,307.2C284.16,307.2 307.2,284.16 307.2,256L307.2,51.2C307.2,23.04 284.16,0 256,0ZM256,230.4C256,244.544 244.544,256 230.4,256L76.8,256C62.656,256 51.2,244.544 51.2,230.4L51.2,76.8C51.2,62.656 62.656,51.2 76.8,51.2L230.4,51.2C244.544,51.2 256,62.656 256,76.8L256,230.4Z" style="fill:rgb(46,52,64);fill-rule:nonzero;"/>
        </g>
        <g transform="matrix(0.441762,0.167496,-0.167496,0.441762,209.317,302.444)">
            <text x="159.712px" y="432.531px" style="font-family:'ArialRoundedMTBold', 'Arial Rounded MT Bold', sans-serif;font-size:110.576px;fill:rgb(163,190,140);">A</text>
        </g>
        <g transform="matrix(0.354445,-0.0284399,0.0284399,0.354445,69.415,362.576)">
            <text x="270.877px" y="548.571px" style="font-family:'ArialRoundedMTBold', 'Arial Rounded MT Bold', sans-serif;font-size:122.521px;fill:rgb(94,129,172);">B</text>
        </g>
        <g transform="matrix(0.368277,-0.0718074,0.0718074,0.368277,55.7424,280.238)">
            <text x="196.589px" y="682.375px" style="font-family:'ArialRoundedMTBold', 'Arial Rounded MT Bold', sans-serif;font-size:122.521px;fill:rgb(191,97,106);">N</text>
        </g>
    </g>
    <g transform="matrix(1,0,0,1,302.475,-415)">
        <g transform="matrix(0.390293,0,0,0.422204,149.576,447.149)">
            <path d="M256,0L51.2,0C23.04,0 0,23.04 0,51.2L0,256C0,284.16 23.04,307.2 51.2,307.2L256,307.2C284.16,307.2 307.2,284.16 307.2,256L307.2,51.2C307.2,23.04 284.16,0 256,0ZM256,230.4C256,244.544 244.544,256 230.4,256L76.8,256C62.656,256 51.2,244.544 51.2,230.4L51.2,76.8C51.2,62.656 62.656,51.2 76.8,51.2L230.4,51.2C244.544,51.2 256,62.656 256,76.8L256,230.4Z" style="fill:rgb(46,52,64);fill-rule:nonzero;"/>
        </g>
        <g transform="matrix(0.441762,0.167496,-0.167496,0.441762,209.317,302.444)">
            <text x="159.712px" y="432.531px" style="font-family:'ArialRoundedMTBold', 'Arial Rounded MT Bold', sans-serif;font-size:110.576px;fill:rgb(163,190,140);">A</text>
        </g>
        <g transform="matrix(0.354445,-0.0284399,0.0284399,0.354445,69.415,362.576)">
            <text x="270.877px" y="548.571px" style="font-family:'ArialRoundedMTBold', 'Arial Rounded MT Bold', sans-serif;font-size:122.521px;fill:rgb(94,129,172);">B</text>
        </g>
        <g transform="matrix(0.368277,-0.0718074,0.0718074,0.368277,55.7424,280.238)">
            <text x="196.589px" y="682.375px" style="font-family:'ArialRoundedMTBold', 'Arial Rounded MT Bold', sans-serif;font-size:122.521px;fill:rgb(191,97,106);">N</text>
        </g>
    </g>
    <g transform="matrix(1,0,0,1,596.69,-415)">
        <g transform="matrix(0.390293,0,0,0.422204,149.576,447.149)">
            <path d="M256,0L51.2,0C23.04,0 0,23.04 0,51.2L0,256C0,284.16 23.04,307.2 51.2,307.2L256,307.2C284.16,307.2 307.2,284.16 307.2,256L307.2,51.2C307.2,23.04 284.16,0 256,0ZM256,230.4C256,244.544 244.544,256 230.4,256L76.8,256C62.656,256 51.2,244.544 51.2,230.4L51.2,76.8C51.2,62.656 62.656,51.2 76.8,51.2L230.4,51.2C244.544,51.2 256,62.656 256,76.8L256,230.4Z" style="fill:rgb(46,52,64);fill-rule:nonzero;"/>
        </g>
        <g transform="matrix(0.441762,0.167496,-0.167496,0.441762,209.317,302.444)">
            <text x="159.712px" y="432.531px" style="font-family:'ArialRoundedMTBold', 'Arial Rounded MT Bold', sans-serif;font-size:110.576px;fill:rgb(163,190,140);">A</text>
        </g>
        <g transform="matrix(0.354445,-0.0284399,0.0284399,0.354445,69.415,362.576)">
            <text x="270.877px" y="548.571px" style="font-family:'ArialRoundedMTBold', 'Arial Rounded MT Bold', sans-serif;font-size:122.521px;fill:rgb(94,129,172);">B</text>
        </g>
        <g transform="matrix(0.368277,-0.0718074,0.0718074,0.368277,55.7424,280.238)">
            <text x="196.589px" y="682.375px" style="font-family:'ArialRoundedMTBold', 'Arial Rounded MT Bold', sans-serif;font-size:122.521px;fill:rgb(191,97,106);">N</text>
        </g>
    </g>
    <g transform="matrix(1,0,0,1,743.797,-415)">
        <g transform="matrix(0.390293,0,0,0.422204,149.576,447.149)">
            <path d="M256,0L51.2,0C23.04,0 0,23.04 0,51.2L0,256C0,284.16 23.04,307.2 51.2,307.2L256,307.2C284.16,307.2 307.2,284.16 307.2,256L307.2,51.2C307.2,23.04 284.16,0 256,0ZM256,230.4C256,244.544 244.544,256 230.4,256L76.8,256C62.656,256 51.2,244.544 51.2,230.4L51.2,76.8C51.2,62.656 62.656,51.2 76.8,51.2L230.4,51.2C244.544,51.2 256,62.656 256,76.8L256,230.4Z" style="fill:rgb(46,52,64);fill-rule:nonzero;"/>
        </g>
        <g transform="matrix(0.441762,0.167496,-0.167496,0.441762,209.317,302.444)">
            <text x="159.712px" y="432.531px" style="font-family:'ArialRoundedMTBold', 'Arial Rounded MT Bold', sans-serif;font-size:110.576px;fill:rgb(163,190,140);">A</text>
        </g>
        <g transform="matrix(0.354445,-0.0284399,0.0284399,0.354445,69.415,362.576)">
            <text x="270.877px" y="548.571px" style="font-family:'ArialRoundedMTBold', 'Arial Rounded MT Bold', sans-serif;font-size:122.521px;fill:rgb(94,129,172);">B</text>
        </g>
        <g transform="matrix(0.368277,-0.0718074,0.0718074,0.368277,55.7424,280.238)">
            <text x="196.589px" y="682.375px" style="font-family:'ArialRoundedMTBold', 'Arial Rounded MT Bold', sans-serif;font-size:122.521px;fill:rgb(191,97,106);">N</text>
        </g>
    </g>
</svg>
